<svg width="1000" height="500" viewBox="0 0 1000 500" fill="none" xmlns="http://www.w3.org/2000/svg">
  <defs>
    <linearGradient id="ocean" x1="0" y1="0" x2="1" y2="1">
      <stop offset="0%" stop-color="#f4f0e8" />
      <stop offset="100%" stop-color="#e9e0d0" />
    </linearGradient>
    <linearGradient id="land" x1="0" y1="0" x2="1" y2="1">
      <stop offset="0%" stop-color="#c9b08f" />
      <stop offset="100%" stop-color="#a8845f" />
    </linearGradient>
  </defs>
  <rect width="1000" height="500" fill="url(#ocean)" />
  <g opacity="0.25" stroke="#b59e80" stroke-width="1">
    <ellipse cx="500" cy="250" rx="470" ry="210" fill="none" />
    <path d="M30 250H970" />
    <path d="M120 160C260 210 740 210 880 160" />
    <path d="M120 340C260 290 740 290 880 340" />
    <path d="M230 70C270 140 270 360 230 430" />
    <path d="M500 40C530 140 530 360 500 460" />
    <path d="M770 70C730 140 730 360 770 430" />
  </g>
  <g fill="url(#land)" opacity="0.9">
    <path d="M110 170C150 140 220 140 280 170C340 200 360 260 330 300C300 340 230 350 180 320C120 280 90 210 110 170Z" />
    <path d="M300 120C340 80 420 80 470 120C520 160 520 230 470 260C430 290 360 300 330 260C290 220 280 160 300 120Z" />
    <path d="M310 300C340 270 390 270 420 300C450 330 450 370 420 390C390 410 340 410 310 380C280 350 280 320 310 300Z" />
    <path d="M520 150C570 120 640 120 700 150C760 180 790 230 770 270C740 330 650 350 590 330C520 300 490 210 520 150Z" />
    <path d="M650 250C690 230 740 230 780 250C820 270 830 320 800 350C760 390 690 400 650 370C610 340 610 280 650 250Z" />
    <path d="M520 300C560 280 600 280 640 300C680 320 690 360 660 390C630 420 580 430 540 410C500 390 490 330 520 300Z" />
    <path d="M800 120C830 100 870 100 900 120C930 140 940 170 920 190C900 210 860 220 830 200C800 180 790 140 800 120Z" />
  </g>
</svg>
