<svg width="1200" height="600" viewBox="0 0 1200 600" fill="none" xmlns="http://www.w3.org/2000/svg">
  <defs>
    <linearGradient id="ocean" x1="0" y1="0" x2="1" y2="1">
      <stop offset="0%" stop-color="#f7f2e8" />
      <stop offset="50%" stop-color="#efe5d6" />
      <stop offset="100%" stop-color="#e3d6c3" />
    </linearGradient>
    <linearGradient id="land" x1="0" y1="0" x2="1" y2="1">
      <stop offset="0%" stop-color="#c6a57a" />
      <stop offset="100%" stop-color="#9e774f" />
    </linearGradient>
    <linearGradient id="land2" x1="0" y1="0" x2="1" y2="1">
      <stop offset="0%" stop-color="#d1b08a" />
      <stop offset="100%" stop-color="#b18a62" />
    </linearGradient>
  </defs>

  <rect width="1200" height="600" fill="url(#ocean)" />

  <g opacity="0.25" stroke="#b59e80" stroke-width="1">
    <ellipse cx="600" cy="300" rx="560" ry="240" fill="none" />
    <path d="M40 300H1160" />
    <path d="M140 190C300 240 900 240 1060 190" />
    <path d="M140 410C300 360 900 360 1060 410" />
    <path d="M300 80C340 170 340 430 300 520" />
    <path d="M600 60C630 170 630 430 600 540" />
    <path d="M900 80C860 170 860 430 900 520" />
  </g>

  <g fill="url(#land)" opacity="0.95">
    <!-- North America -->
    <path d="M120 170C170 120 260 100 330 120C390 140 420 190 420 240C420 280 400 320 360 340C320 360 260 360 220 330C170 300 120 240 120 170Z" />
    <path d="M420 210C460 200 520 210 550 240C580 270 580 320 550 340C520 360 470 360 440 330C410 300 400 240 420 210Z" />
    <!-- Central America -->
    <path d="M360 330C380 320 410 320 430 330C450 340 450 360 430 370C410 380 380 380 360 370C340 360 340 340 360 330Z" />
    <!-- South America -->
    <path d="M360 380C390 360 430 360 460 380C490 400 500 450 480 500C460 550 410 560 380 540C350 520 330 450 360 380Z" />

    <!-- Europe -->
    <path d="M560 170C590 150 640 150 670 170C700 190 700 220 670 230C640 240 590 240 560 220C530 200 530 180 560 170Z" />
    <!-- Africa -->
    <path d="M560 240C600 220 660 220 700 240C740 260 760 310 740 360C720 410 660 430 610 410C560 390 530 330 560 240Z" />

    <!-- Middle East + Asia -->
    <path d="M700 190C740 160 820 160 880 190C950 230 980 280 970 330C960 380 900 420 840 420C780 420 730 390 700 340C670 290 670 230 700 190Z" />
    <path d="M880 260C910 250 950 260 970 280C990 300 990 330 970 340C950 350 910 350 890 330C870 310 870 280 880 260Z" />

    <!-- India + SE Asia -->
    <path d="M780 360C810 350 850 360 870 380C890 400 890 430 870 440C850 450 810 450 790 430C770 410 770 370 780 360Z" />
    <path d="M860 420C890 410 930 420 950 440C970 460 970 490 950 500C930 510 890 510 870 490C850 470 850 430 860 420Z" />

    <!-- Australia -->
    <path d="M910 470C950 450 1020 450 1060 470C1090 490 1090 530 1060 550C1020 570 950 570 910 550C880 530 880 490 910 470Z" />
  </g>

  <g fill="url(#land2)" opacity="0.9">
    <!-- Greenland -->
    <path d="M380 90C410 70 460 70 490 90C520 110 520 140 490 150C460 160 410 160 380 140C350 120 350 100 380 90Z" />
    <!-- Japan -->
    <path d="M980 300C990 290 1010 295 1015 310C1020 325 1010 340 995 340C980 340 970 320 980 300Z" />
    <!-- UK -->
    <path d="M540 170C550 165 560 170 565 180C570 190 565 200 555 200C545 200 535 185 540 170Z" />
    <!-- Madagascar -->
    <path d="M690 390C700 385 715 390 720 405C725 420 715 430 705 430C695 430 685 410 690 390Z" />
  </g>
</svg>
